<svg width="42" height="42" viewBox="0 0 42 42" fill="none" xmlns="http://www.w3.org/2000/svg">
<rect width="42" height="42" rx="12" fill="#6A00FF"/>
<rect width="42" height="42" rx="12" fill="url(#paint0_linear_192_5)" fill-opacity="0.2"/>
<path d="M32.4545 12H9.54545C8.87036 12 8.22291 12.2709 7.74555 12.7532C7.26818 13.2354 7 13.8894 7 14.5714V27.4286C7 28.1106 7.26818 28.7646 7.74555 29.2468C8.22291 29.7291 8.87036 30 9.54545 30H32.4545C33.1296 30 33.7771 29.7291 34.2545 29.2468C34.7318 28.7646 35 28.1106 35 27.4286V14.5714C35 13.8894 34.7318 13.2354 34.2545 12.7532C33.7771 12.2709 33.1296 12 32.4545 12ZM22.2727 14.5714H24.8182V17.1429H22.2727V14.5714ZM22.2727 19.7143H24.8182V22.2857H22.2727V19.7143ZM17.1818 14.5714H19.7273V17.1429H17.1818V14.5714ZM17.1818 19.7143H19.7273V22.2857H17.1818V19.7143ZM12.0909 14.5714H14.6364V17.1429H12.0909V14.5714ZM12.0909 19.7143H14.6364V22.2857H12.0909V19.7143ZM27.3636 27.4286H14.6364V24.8571H27.3636V27.4286ZM29.9091 22.2857H27.3636V19.7143H29.9091V22.2857ZM29.9091 17.1429H27.3636V14.5714H29.9091V17.1429Z" fill="white"/>
<defs>
<linearGradient id="paint0_linear_192_5" x1="21" y1="0" x2="21" y2="42" gradientUnits="userSpaceOnUse">
<stop stop-color="white" stop-opacity="0"/>
<stop offset="1" stop-color="white"/>
</linearGradient>
</defs>
</svg>
