<svg width="146" height="32" viewBox="0 0 146 32" fill="none" xmlns="http://www.w3.org/2000/svg">
<path d="M27.9999 6.66675H3.99992C3.29267 6.66675 2.6144 6.9477 2.1143 7.4478C1.6142 7.94789 1.33325 8.62617 1.33325 9.33341V22.6667C1.33325 23.374 1.6142 24.0523 2.1143 24.5524C2.6144 25.0525 3.29267 25.3334 3.99992 25.3334H27.9999C28.7072 25.3334 29.3854 25.0525 29.8855 24.5524C30.3856 24.0523 30.6666 23.374 30.6666 22.6667V9.33341C30.6666 8.62617 30.3856 7.94789 29.8855 7.4478C29.3854 6.9477 28.7072 6.66675 27.9999 6.66675ZM17.3333 9.33341H19.9999V12.0001H17.3333V9.33341ZM17.3333 14.6667H19.9999V17.3334H17.3333V14.6667ZM11.9999 9.33341H14.6666V12.0001H11.9999V9.33341ZM11.9999 14.6667H14.6666V17.3334H11.9999V14.6667ZM6.66659 9.33341H9.33325V12.0001H6.66659V9.33341ZM6.66659 14.6667H9.33325V17.3334H6.66659V14.6667ZM22.6666 22.6667H9.33325V20.0001H22.6666V22.6667ZM25.3333 17.3334H22.6666V14.6667H25.3333V17.3334ZM25.3333 12.0001H22.6666V9.33341H25.3333V12.0001Z" fill="white"/>
<path d="M43.724 22.288C42.68 22.288 41.66 22.174 40.664 21.946C39.68 21.706 38.87 21.388 38.234 20.992L39.602 17.896C40.202 18.244 40.874 18.526 41.618 18.742C42.362 18.946 43.076 19.048 43.76 19.048C44.348 19.048 44.768 18.994 45.02 18.886C45.272 18.766 45.398 18.592 45.398 18.364C45.398 18.1 45.23 17.902 44.894 17.77C44.57 17.638 44.03 17.494 43.274 17.338C42.302 17.134 41.492 16.918 40.844 16.69C40.196 16.45 39.632 16.066 39.152 15.538C38.672 14.998 38.432 14.272 38.432 13.36C38.432 12.568 38.654 11.848 39.098 11.2C39.542 10.552 40.202 10.042 41.078 9.67C41.966 9.298 43.04 9.112 44.3 9.112C45.164 9.112 46.01 9.208 46.838 9.4C47.678 9.58 48.416 9.85 49.052 10.21L47.774 13.288C46.538 12.664 45.368 12.352 44.264 12.352C43.172 12.352 42.626 12.616 42.626 13.144C42.626 13.396 42.788 13.588 43.112 13.72C43.436 13.84 43.97 13.972 44.714 14.116C45.674 14.296 46.484 14.506 47.144 14.746C47.804 14.974 48.374 15.352 48.854 15.88C49.346 16.408 49.592 17.128 49.592 18.04C49.592 18.832 49.37 19.552 48.926 20.2C48.482 20.836 47.816 21.346 46.928 21.73C46.052 22.102 44.984 22.288 43.724 22.288ZM61.5301 12.154V22H57.6601V21.19C57.0721 21.85 56.1721 22.18 54.9601 22.18C54.0961 22.18 53.2981 21.976 52.5661 21.568C51.8461 21.148 51.2701 20.548 50.8381 19.768C50.4181 18.988 50.2081 18.088 50.2081 17.068C50.2081 16.048 50.4181 15.154 50.8381 14.386C51.2701 13.606 51.8461 13.012 52.5661 12.604C53.2981 12.184 54.0961 11.974 54.9601 11.974C56.0521 11.974 56.8861 12.256 57.4621 12.82V12.154H61.5301ZM55.9321 19.012C56.4001 19.012 56.7841 18.844 57.0841 18.508C57.3841 18.16 57.5341 17.68 57.5341 17.068C57.5341 16.456 57.3841 15.982 57.0841 15.646C56.7841 15.31 56.4001 15.142 55.9321 15.142C55.4641 15.142 55.0801 15.31 54.7801 15.646C54.4801 15.982 54.3301 16.456 54.3301 17.068C54.3301 17.68 54.4801 18.16 54.7801 18.508C55.0801 18.844 55.4641 19.012 55.9321 19.012ZM68.0496 18.976L67.4016 19.678V22H63.3336V8.644H67.4016V15.016L70.2276 12.154H75.0336L70.9656 16.42L75.3576 22H70.4436L68.0496 18.976ZM83.0056 11.974C84.2176 11.974 85.1896 12.34 85.9216 13.072C86.6656 13.804 87.0376 14.908 87.0376 16.384V22H82.9696V17.086C82.9696 15.958 82.5676 15.394 81.7636 15.394C81.3076 15.394 80.9356 15.556 80.6476 15.88C80.3716 16.192 80.2336 16.69 80.2336 17.374V22H76.1656V8.644H80.2336V12.946C80.9896 12.298 81.9136 11.974 83.0056 11.974ZM99.7801 12.154V22H95.9101V21.19C95.3221 21.85 94.4221 22.18 93.2101 22.18C92.3461 22.18 91.5481 21.976 90.8161 21.568C90.0961 21.148 89.5201 20.548 89.0881 19.768C88.6681 18.988 88.4581 18.088 88.4581 17.068C88.4581 16.048 88.6681 15.154 89.0881 14.386C89.5201 13.606 90.0961 13.012 90.8161 12.604C91.5481 12.184 92.3461 11.974 93.2101 11.974C94.3021 11.974 95.1361 12.256 95.7121 12.82V12.154H99.7801ZM94.1821 19.012C94.6501 19.012 95.0341 18.844 95.3341 18.508C95.6341 18.16 95.7841 17.68 95.7841 17.068C95.7841 16.456 95.6341 15.982 95.3341 15.646C95.0341 15.31 94.6501 15.142 94.1821 15.142C93.7141 15.142 93.3301 15.31 93.0301 15.646C92.7301 15.982 92.5801 16.456 92.5801 17.068C92.5801 17.68 92.7301 18.16 93.0301 18.508C93.3301 18.844 93.7141 19.012 94.1821 19.012ZM108.352 21.658C107.74 22.006 106.906 22.18 105.85 22.18C104.47 22.18 103.408 21.85 102.664 21.19C101.92 20.518 101.548 19.516 101.548 18.184V9.94H105.616V12.694H107.632V15.664H105.616V18.148C105.616 18.448 105.694 18.682 105.85 18.85C106.006 19.018 106.21 19.102 106.462 19.102C106.81 19.102 107.116 19.012 107.38 18.832L108.352 21.658ZM120.135 12.154V20.038C120.135 21.91 119.613 23.314 118.569 24.25C117.537 25.198 116.073 25.672 114.177 25.672C113.205 25.672 112.293 25.564 111.441 25.348C110.601 25.144 109.881 24.844 109.281 24.448L110.649 21.676C111.033 21.964 111.513 22.198 112.089 22.378C112.677 22.558 113.235 22.648 113.763 22.648C114.567 22.648 115.149 22.474 115.509 22.126C115.881 21.778 116.067 21.268 116.067 20.596V20.524C115.359 21.148 114.495 21.46 113.475 21.46C112.227 21.46 111.225 21.082 110.469 20.326C109.713 19.558 109.335 18.406 109.335 16.87V12.154H113.403V16.168C113.403 16.84 113.511 17.32 113.727 17.608C113.943 17.896 114.261 18.04 114.681 18.04C115.077 18.04 115.407 17.884 115.671 17.572C115.935 17.248 116.067 16.744 116.067 16.06V12.154H120.135ZM128.509 11.974C129.373 11.974 130.165 12.184 130.885 12.604C131.617 13.012 132.193 13.606 132.613 14.386C133.045 15.166 133.261 16.066 133.261 17.086C133.261 18.106 133.045 19.006 132.613 19.786C132.193 20.554 131.617 21.148 130.885 21.568C130.165 21.976 129.373 22.18 128.509 22.18C127.417 22.18 126.583 21.898 126.007 21.334V25.492H121.939V12.154H125.809V12.964C126.397 12.304 127.297 11.974 128.509 11.974ZM127.537 19.012C128.005 19.012 128.389 18.844 128.689 18.508C128.989 18.172 129.139 17.698 129.139 17.086C129.139 16.474 128.989 16 128.689 15.664C128.389 15.316 128.005 15.142 127.537 15.142C127.069 15.142 126.685 15.316 126.385 15.664C126.085 16 125.935 16.474 125.935 17.086C125.935 17.698 126.085 18.172 126.385 18.508C126.685 18.844 127.069 19.012 127.537 19.012ZM140.105 19.174C140.537 19.174 140.897 19.12 141.185 19.012C141.485 18.904 141.809 18.718 142.157 18.454L144.281 20.596C143.297 21.652 141.863 22.18 139.979 22.18C138.791 22.18 137.747 21.964 136.847 21.532C135.947 21.088 135.251 20.476 134.759 19.696C134.267 18.916 134.021 18.04 134.021 17.068C134.021 16.084 134.267 15.208 134.759 14.44C135.251 13.66 135.923 13.054 136.775 12.622C137.639 12.19 138.605 11.974 139.673 11.974C140.645 11.974 141.539 12.172 142.355 12.568C143.171 12.952 143.819 13.528 144.299 14.296C144.779 15.052 145.019 15.958 145.019 17.014L138.287 18.31C138.587 18.886 139.193 19.174 140.105 19.174ZM139.691 14.746C139.223 14.746 138.839 14.884 138.539 15.16C138.251 15.436 138.077 15.844 138.017 16.384L141.167 15.772C141.059 15.46 140.873 15.214 140.609 15.034C140.357 14.842 140.051 14.746 139.691 14.746Z" fill="white"/>
</svg>
