<svg width="256" height="256" viewBox="0 0 256 256" fill="none" xmlns="http://www.w3.org/2000/svg">
<path d="M116.586 146.158C117.147 145.146 117.493 143.708 117.863 142.252L100.412 136.143C90.5823 144.467 80.1167 151.243 68.343 156.846C66.9113 167.891 63.0978 171.606 55.9953 179.56C53.1691 182.726 52.4471 186.848 54.3168 190.698L63.0731 208.779L48.4546 208.84L37.8533 182.029C42.938 172.822 44.9867 169.564 41.241 158.623C37.8718 148.762 34.3545 139.993 43.5489 131.342C48.035 127.121 52.9901 123.672 58.2846 120.124L61.9871 98.8839L46.949 103.469L64.3443 82.5561L50.0467 83.0066L91.6005 46.7596L92.1188 56.3798L101.634 51.147L99.0177 61.4583L115.685 81.3281C114.765 84.6603 113.13 87.0484 110.545 89.3131L93.0198 82.6425C94.0873 91.5407 98.4809 99.2295 105.219 105.129L127.354 95.0333L139.029 127.658C139.43 128.775 138.122 131.009 137.332 132.015L124.632 125.177L125.453 120.784L120.986 112.638L110.977 123.357L131.562 136.242L122.491 157.771L110.187 157.654L116.586 146.152V146.158Z" fill="white"/>
<path d="M9 183.904L23.637 150.539C30.9062 145.14 35.0282 141.956 35.0282 141.956L37.4903 157.13L34.9974 169.712L9 183.904Z" fill="white"/>
<path d="M73.4852 160.869C83.7533 155.809 92.7317 150.07 101.531 142.733L109.195 145.337L99.3036 163.325L126.517 163.337L136.97 137.945L142.523 138.019L145.689 129.09L141.326 116.619L247 103.24C246.945 106.566 246.291 109.041 245.822 112.219L231.888 206.508L151.965 202.275L68.7337 198.042L62.4766 182.584L68.6843 173.902C71.3995 170.249 73.1705 166.312 73.4852 160.863V160.869ZM229.944 135.908L232.943 113.799L213.271 115.964C211.593 123.079 210.34 129.299 209.575 136.575L229.944 135.908ZM201.769 136.982L204.577 117.365L190.014 119.075L186.607 137.352L201.769 136.982ZM179.32 137.957L182.72 120.228L161.634 121.919L157.599 138.42C164.997 138.833 171.52 138.531 179.326 137.957H179.32ZM209.377 163.467L211.796 143.295L192.105 143.974L189.113 163.399L209.377 163.467ZM182.467 163.498L185.231 144.368L167.145 144.992L163.282 163.177L182.467 163.492V163.498ZM154.834 163.627C155.642 163.627 156.648 161.807 156.772 161.147L159.666 145.646C153.396 145.417 147.898 145.652 141.777 146.09L137.346 163.504L154.834 163.627ZM133.613 189.409L140.29 170.218L84.5432 170.175L75.6573 187.144L133.613 189.409ZM172.396 191.056L175.704 170.434L147.54 170.372L143.616 189.791L172.396 191.056ZM215.702 192.568L218.121 170.137L184.571 170.168C183.886 170.168 182.714 171.526 182.609 172.192C181.584 178.715 180.548 184.639 179.937 191.13L215.709 192.562L215.702 192.568Z" fill="white"/>
</svg>
