<svg width="146" height="32" viewBox="0 0 146 32" fill="none" xmlns="http://www.w3.org/2000/svg">
<path d="M27.9999 6.66675H3.99992C3.29267 6.66675 2.6144 6.9477 2.1143 7.4478C1.6142 7.94789 1.33325 8.62617 1.33325 9.33341V22.6667C1.33325 23.374 1.6142 24.0523 2.1143 24.5524C2.6144 25.0525 3.29267 25.3334 3.99992 25.3334H27.9999C28.7072 25.3334 29.3854 25.0525 29.8855 24.5524C30.3856 24.0523 30.6666 23.374 30.6666 22.6667V9.33341C30.6666 8.62617 30.3856 7.94789 29.8855 7.4478C29.3854 6.9477 28.7072 6.66675 27.9999 6.66675ZM17.3333 9.33341H19.9999V12.0001H17.3333V9.33341ZM17.3333 14.6667H19.9999V17.3334H17.3333V14.6667ZM11.9999 9.33341H14.6666V12.0001H11.9999V9.33341ZM11.9999 14.6667H14.6666V17.3334H11.9999V14.6667ZM6.66659 9.33341H9.33325V12.0001H6.66659V9.33341ZM6.66659 14.6667H9.33325V17.3334H6.66659V14.6667ZM22.6666 22.6667H9.33325V20.0001H22.6666V22.6667ZM25.3333 17.3334H22.6666V14.6667H25.3333V17.3334ZM25.3333 12.0001H22.6666V9.33341H25.3333V12.0001Z" fill="white"/>
<path d="M43.688 22.252C42.668 22.252 41.678 22.126 40.718 21.874C39.758 21.622 38.978 21.286 38.378 20.866L39.548 18.238C40.112 18.61 40.766 18.91 41.51 19.138C42.254 19.366 42.986 19.48 43.706 19.48C45.074 19.48 45.758 19.138 45.758 18.454C45.758 18.094 45.56 17.83 45.164 17.662C44.78 17.482 44.156 17.296 43.292 17.104C42.344 16.9 41.552 16.684 40.916 16.456C40.28 16.216 39.734 15.838 39.278 15.322C38.822 14.806 38.594 14.11 38.594 13.234C38.594 12.466 38.804 11.776 39.224 11.164C39.644 10.54 40.268 10.048 41.096 9.688C41.936 9.328 42.962 9.148 44.174 9.148C45.002 9.148 45.818 9.244 46.622 9.436C47.426 9.616 48.134 9.886 48.746 10.246L47.648 12.892C46.448 12.244 45.284 11.92 44.156 11.92C43.448 11.92 42.932 12.028 42.608 12.244C42.284 12.448 42.122 12.718 42.122 13.054C42.122 13.39 42.314 13.642 42.698 13.81C43.082 13.978 43.7 14.152 44.552 14.332C45.512 14.536 46.304 14.758 46.928 14.998C47.564 15.226 48.11 15.598 48.566 16.114C49.034 16.618 49.268 17.308 49.268 18.184C49.268 18.94 49.058 19.624 48.638 20.236C48.218 20.848 47.588 21.34 46.748 21.712C45.908 22.072 44.888 22.252 43.688 22.252ZM61.0663 12.244V22H57.8083V21.028C57.1723 21.784 56.2123 22.162 54.9283 22.162C54.0403 22.162 53.2303 21.958 52.4983 21.55C51.7783 21.13 51.2023 20.536 50.7703 19.768C50.3503 19 50.1403 18.112 50.1403 17.104C50.1403 16.096 50.3503 15.214 50.7703 14.458C51.2023 13.69 51.7783 13.102 52.4983 12.694C53.2303 12.286 54.0403 12.082 54.9283 12.082C56.0803 12.082 56.9863 12.418 57.6463 13.09V12.244H61.0663ZM55.6483 19.444C56.2483 19.444 56.7403 19.24 57.1243 18.832C57.5083 18.412 57.7003 17.836 57.7003 17.104C57.7003 16.384 57.5083 15.82 57.1243 15.412C56.7403 15.004 56.2483 14.8 55.6483 14.8C55.0483 14.8 54.5563 15.004 54.1723 15.412C53.7883 15.82 53.5963 16.384 53.5963 17.104C53.5963 17.836 53.7883 18.412 54.1723 18.832C54.5563 19.24 55.0483 19.444 55.6483 19.444ZM67.6959 18.58L66.6879 19.606V22H63.2679V8.644H66.6879V15.646L70.1799 12.244H74.2299L70.1799 16.42L74.5719 22H70.4319L67.6959 18.58ZM81.9618 12.082C83.1738 12.082 84.1458 12.442 84.8778 13.162C85.6218 13.882 85.9938 14.968 85.9938 16.42V22H82.5738V16.978C82.5738 15.646 82.0398 14.98 80.9718 14.98C80.3838 14.98 79.9098 15.172 79.5498 15.556C79.2018 15.94 79.0278 16.516 79.0278 17.284V22H75.6078V8.644H79.0278V13.144C79.3998 12.796 79.8378 12.532 80.3418 12.352C80.8458 12.172 81.3858 12.082 81.9618 12.082ZM98.5956 12.244V22H95.3376V21.028C94.7016 21.784 93.7416 22.162 92.4576 22.162C91.5696 22.162 90.7596 21.958 90.0276 21.55C89.3076 21.13 88.7316 20.536 88.2996 19.768C87.8796 19 87.6696 18.112 87.6696 17.104C87.6696 16.096 87.8796 15.214 88.2996 14.458C88.7316 13.69 89.3076 13.102 90.0276 12.694C90.7596 12.286 91.5696 12.082 92.4576 12.082C93.6096 12.082 94.5156 12.418 95.1756 13.09V12.244H98.5956ZM93.1776 19.444C93.7776 19.444 94.2696 19.24 94.6536 18.832C95.0376 18.412 95.2296 17.836 95.2296 17.104C95.2296 16.384 95.0376 15.82 94.6536 15.412C94.2696 15.004 93.7776 14.8 93.1776 14.8C92.5776 14.8 92.0856 15.004 91.7016 15.412C91.3176 15.82 91.1256 16.384 91.1256 17.104C91.1256 17.836 91.3176 18.412 91.7016 18.832C92.0856 19.24 92.5776 19.444 93.1776 19.444ZM107.079 21.604C106.791 21.784 106.437 21.922 106.017 22.018C105.609 22.114 105.171 22.162 104.703 22.162C103.431 22.162 102.453 21.85 101.769 21.226C101.097 20.602 100.761 19.672 100.761 18.436V10.066H104.181V12.604H106.395V15.16H104.181V18.4C104.181 18.76 104.271 19.036 104.451 19.228C104.631 19.42 104.877 19.516 105.189 19.516C105.585 19.516 105.933 19.414 106.233 19.21L107.079 21.604ZM118.651 12.244V20.218C118.651 22.03 118.165 23.386 117.193 24.286C116.233 25.198 114.847 25.654 113.035 25.654C112.087 25.654 111.199 25.546 110.371 25.33C109.555 25.114 108.859 24.796 108.283 24.376L109.525 21.982C109.909 22.306 110.389 22.558 110.965 22.738C111.553 22.93 112.135 23.026 112.711 23.026C113.575 23.026 114.211 22.828 114.619 22.432C115.027 22.036 115.231 21.448 115.231 20.668V20.452C114.499 21.148 113.587 21.496 112.495 21.496C111.235 21.496 110.227 21.124 109.471 20.38C108.727 19.636 108.355 18.52 108.355 17.032V12.244H111.775V16.474C111.775 17.218 111.913 17.758 112.189 18.094C112.465 18.43 112.867 18.598 113.395 18.598C113.935 18.598 114.373 18.406 114.709 18.022C115.057 17.638 115.231 17.062 115.231 16.294V12.244H118.651ZM126.992 12.082C127.88 12.082 128.684 12.292 129.404 12.712C130.136 13.12 130.712 13.708 131.132 14.476C131.564 15.232 131.78 16.114 131.78 17.122C131.78 18.13 131.564 19.018 131.132 19.786C130.712 20.542 130.136 21.13 129.404 21.55C128.684 21.958 127.88 22.162 126.992 22.162C125.852 22.162 124.946 21.82 124.274 21.136V25.492H120.854V12.244H124.112V13.216C124.748 12.46 125.708 12.082 126.992 12.082ZM126.272 19.444C126.872 19.444 127.364 19.24 127.748 18.832C128.132 18.412 128.324 17.842 128.324 17.122C128.324 16.402 128.132 15.838 127.748 15.43C127.364 15.01 126.872 14.8 126.272 14.8C125.672 14.8 125.18 15.01 124.796 15.43C124.412 15.838 124.22 16.402 124.22 17.122C124.22 17.842 124.412 18.412 124.796 18.832C125.18 19.24 125.672 19.444 126.272 19.444ZM138.589 19.552C139.057 19.552 139.459 19.486 139.795 19.354C140.143 19.222 140.491 19.006 140.839 18.706L142.621 20.578C141.697 21.634 140.317 22.162 138.481 22.162C137.341 22.162 136.339 21.946 135.475 21.514C134.611 21.082 133.939 20.482 133.459 19.714C132.991 18.946 132.757 18.076 132.757 17.104C132.757 16.144 132.991 15.286 133.459 14.53C133.927 13.762 134.569 13.162 135.385 12.73C136.213 12.298 137.137 12.082 138.157 12.082C139.105 12.082 139.969 12.28 140.749 12.676C141.541 13.06 142.171 13.63 142.639 14.386C143.107 15.13 143.341 16.018 143.341 17.05L136.375 18.382C136.747 19.162 137.485 19.552 138.589 19.552ZM138.175 14.512C137.587 14.512 137.107 14.698 136.735 15.07C136.363 15.43 136.153 15.952 136.105 16.636L140.065 15.862C139.945 15.454 139.717 15.13 139.381 14.89C139.045 14.638 138.643 14.512 138.175 14.512Z" fill="white"/>
</svg>
