<svg width="158" height="108" viewBox="0 0 158 108" fill="none" xmlns="http://www.w3.org/2000/svg">
<path d="M71.4228 65.9872C71.7956 65.3153 72.025 64.3608 72.2708 63.3941L60.6857 59.3385C54.1599 64.8647 47.2122 69.3627 39.396 73.0824C38.4456 80.4152 35.9139 82.8813 31.1988 88.1618C29.3226 90.2633 28.8433 92.9998 30.0845 95.556L35.8975 107.559L26.1928 107.6L19.1549 89.8004C22.5305 83.6883 23.8906 81.5254 21.4039 74.2622C19.1672 67.7159 16.8322 61.8947 22.9361 56.1514C25.9142 53.3493 29.2038 51.0593 32.7186 48.7038L35.1765 34.6035L25.1933 37.6473L36.7414 23.7641L27.2497 24.0631L54.8359 0L55.18 6.38651L61.4968 2.91264L59.7599 9.75798L70.8247 22.9488C70.2143 25.161 69.1287 26.7463 67.4123 28.2498L55.7781 23.8214C56.4868 29.7286 59.4035 34.8329 63.8769 38.7492L78.5712 32.0473L86.3219 53.7057C86.5882 54.4472 85.7197 55.9301 85.1954 56.5979L76.7647 52.0589L77.3095 49.1422L74.3436 43.7347L67.699 50.8504L81.3651 59.404L75.3432 73.6969L67.1747 73.619L71.4228 65.9831V65.9872Z" fill="black"/>
<path d="M0 91.0457L9.71701 68.8957C14.5427 65.3112 17.2792 63.1974 17.2792 63.1974L18.9138 73.2708L17.2587 81.6237L0 91.0457Z" fill="black"/>
<path d="M42.8092 75.7534C49.6259 72.3942 55.5863 68.5844 61.428 63.7136L66.5159 65.4424L59.9492 77.3838L78.0149 77.392L84.9545 60.5347L88.6414 60.5839L90.7429 54.6562L87.8466 46.377L158 37.4957C157.963 39.7038 157.529 41.3465 157.218 43.4562L147.968 106.051L94.9091 103.241L39.6549 100.431L35.501 90.1691L39.6221 84.4053C41.4246 81.9801 42.6003 79.3665 42.8092 75.7493V75.7534ZM146.677 59.1828L148.668 44.5049L135.608 45.9428C134.494 50.6661 133.662 54.7954 133.154 59.6253L146.677 59.1828ZM127.972 59.8956L129.836 46.8727L120.168 48.0075L117.907 60.1414L127.972 59.8956ZM113.069 60.5429L115.326 48.7735L101.328 49.896L98.6492 60.8501C103.561 61.1246 107.891 60.9239 113.073 60.5429H113.069ZM133.023 77.478L134.629 64.0864L121.557 64.537L119.57 77.433L133.023 77.478ZM115.158 77.4985L116.994 64.7992L104.987 65.213L102.422 77.2855L115.158 77.4944V77.4985ZM96.814 77.5845C97.3506 77.5845 98.0184 76.376 98.1003 75.9377L100.022 65.6472C95.8595 65.4956 92.2095 65.6513 88.1457 65.9421L85.2044 77.5026L96.814 77.5845ZM82.726 94.6999L87.1584 81.9596L50.1502 81.931L44.2512 93.1965L82.726 94.6999ZM108.473 95.7937L110.669 82.103L91.9719 82.0621L89.3665 94.9539L108.473 95.7937ZM137.222 96.7973L138.828 81.9064L116.555 81.9269C116.101 81.9269 115.322 82.8281 115.253 83.2705C114.573 87.6006 113.884 91.5333 113.479 95.8428L137.226 96.7932L137.222 96.7973Z" fill="black"/>
</svg>
